<?xml version="1.0" standalone="no"?><!DOCTYPE svg PUBLIC "-//W3C//DTD SVG 1.1//EN" "http://www.w3.org/Graphics/SVG/1.1/DTD/svg11.dtd"><svg t="1540181386672" class="icon" style="" viewBox="0 0 1024 1024" version="1.1" xmlns="http://www.w3.org/2000/svg" p-id="6745" xmlns:xlink="http://www.w3.org/1999/xlink" width="128" height="128"><defs><style type="text/css"></style></defs><path d="M472.27904 11.71456c-157.73696 12.05248-303.0016 100.73088-386.7648 235.776C-47.90272 462.83776 0.1024 743.97696 197.2736 902.93248c123.00288 99.09248 284.20096 134.23616 438.45632 95.41632 95.21152-23.9104 184.90368-77.84448 248.24832-149.5552 9.40032-10.41408 18.39104-20.6336 20.224-22.4768 2.85696-3.06176 5.10976-3.26656 14.51008-1.83296 42.496 6.73792 84.18304-22.6816 93.16352-65.3824 4.90496-23.7056-0.6144-72.12032-12.25728-106.24-3.06176-8.78592-3.06176-10.42432 0.8192-25.33376 15.12448-59.04384 17.57184-136.07936 6.33856-200.64256C980.40832 275.27168 887.4496 145.53088 752.18944 71.3728c-84.5824-46.592-182.25152-67.2256-279.9104-59.65824z m88.4736 42.9056c105.63584 11.43808 200.83712 57.21088 276.23424 132.59776 87.8592 87.6544 134.85056 201.04192 134.85056 324.864 0 25.94816-2.85696 64.1536-5.10976 71.10656-0.6144 1.6384-5.92896-3.47136-13.07648-12.46208-22.272-27.5968-56.18688-55.37792-87.6544-72.13056-16.34304-8.78592-26.97216-8.58112-34.52928 0.2048-5.72416 6.53312-5.92896 11.43808-0.6144 47.40096 7.14752 47.60576 12.25728 103.17824 15.12448 161.00352 2.44736 52.92032 2.85696 55.77728 8.17152 67.42016 3.06176 6.54336 7.76192 15.12448 10.61888 19.00544 6.33856 8.17152 6.54336 7.96672-18.59584 34.73408-67.82976 71.91552-158.34112 120.13568-257.4336 137.50272-31.26272 5.31456-89.69216 7.35232-121.77408 4.08576-107.8784-11.23328-203.49952-56.59648-279.7056-133.00736-87.84896-87.6544-134.85056-201.05216-134.85056-324.864s46.99136-237.2096 134.85056-324.864C261.4272 112.8448 357.25312 66.26304 460.02176 54.82496c23.296-2.6624 77.43488-2.8672 100.73088-0.2048z m328.74496 510.16704c50.87232 42.2912 82.33984 107.8784 82.33984 171.22304 0 13.28128-0.8192 18.18624-4.70016 25.53856-13.69088 25.74336-48.83456 29.62432-67.62496 7.55712-9.40032-10.83392-10.82368-19.6096-12.25728-68.03456-1.024-35.14368-10.21952-140.36992-12.66688-144.45568-2.8672-4.49536 4.28032-0.6144 14.90944 8.17152z" p-id="6746"></path><path d="M307.80416 262.00064c-36.77184 4.49536-83.77344 26.15296-101.94944 46.99136-10.21952 11.64288-8.37632 26.15296 4.29056 32.68608 8.78592 4.49536 16.13824 2.44736 30.64832-8.37632 15.12448-11.23328 37.18144-22.0672 53.93408-26.35776 14.71488-3.88096 38.81984-4.29056 54.34368-1.024 13.89568 2.85696 44.9536 17.36704 57.00608 26.76736 16.95744 13.07648 22.272 14.51008 32.48128 8.37632 11.02848-6.53312 13.28128-19.6096 5.10976-30.44352-10.42432-13.69088-46.99136-34.32448-75.19232-42.496-16.7424-4.90496-46.16192-7.76192-60.672-6.12352zM679.45472 262.6048c-34.11968 4.90496-84.59264 29.21472-98.88768 48.01536-8.37632 10.83392-5.92896 23.90016 5.51936 30.64832 8.37632 5.10976 16.75264 3.06176 30.23872-7.35232 13.89568-10.42432 44.544-24.92416 58.83904-27.98592 15.53408-3.26656 39.63904-2.85696 54.35392 1.024 16.75264 4.29056 38.20544 14.90944 53.52448 26.15296 14.71488 11.02848 22.272 13.07648 31.05792 8.58112 7.96672-4.08576 10.62912-8.99072 10.62912-18.80064 0-6.53312-1.4336-9.19552-9.60512-16.95744-17.36704-16.54784-50.46272-33.71008-77.23008-40.04864-15.94368-3.67616-44.1344-5.31456-58.43968-3.2768zM265.92256 370.0736c-20.8384 7.35232-60.47744 27.38176-82.74944 41.8816-24.71936 16.34304-55.36768 46.78656-67.42016 67.01056-36.57728 61.92128-25.12896 126.07488 26.56256 150.39488 17.16224 7.96672 42.496 9.80992 59.45344 4.29056 21.6576-7.14752 40.66304-23.296 50.25792-42.9056 5.51936-11.02848 8.37632-24.71936 9.80992-48.01536 2.85696-43.1104 13.07648-85.8112 30.44352-127.488 11.02848-26.15296 11.64288-33.50528 3.88096-41.8816-7.96672-8.38656-13.69088-9.00096-30.23872-3.28704z m-23.5008 57.00608c0 0.4096-1.8432 6.53312-3.88096 13.69088-10.82368 35.75808-15.93344 62.32064-18.5856 98.27328-2.048 29.21472-5.51936 38.81984-16.75264 47.19616-14.51008 10.83392-28.39552 12.25728-43.9296 4.49536-14.90944-7.55712-21.6576-18.18624-22.6816-35.75808-2.44736-42.0864 29.41952-85.4016 88.2688-119.93088 13.88544-7.96672 17.5616-9.79968 17.5616-7.96672zM482.49856 450.99008c-50.47296 5.30432-94.80192 25.33376-133.62176 60.27264-25.74336 23.0912-55.57248 71.71072-70.49216 115.02592-8.99072 25.94816-17.98144 68.85376-16.34304 77.43488 1.6384 7.76192 7.35232 14.30528 14.51008 15.93344 3.06176 0.8192 23.90016-1.024 46.58176-4.08576 143.43168-19.21024 239.2576-19.21024 376.96512 0 45.14816 6.13376 48.62976 6.13376 55.57248-0.2048 8.17152-7.55712 8.58112-14.10048 2.85696-42.2912-6.53312-32.27648-16.95744-61.91104-31.46752-90.51136-40.04864-78.45888-103.79264-122.99264-188.57984-131.77856-23.0912-2.2528-32.28672-2.2528-55.98208 0.2048z m69.05856 43.7248c65.9968 11.43808 116.86912 54.35392 146.69824 123.60704 7.55712 17.77664 19.41504 54.75328 17.77664 56.18688-0.4096 0.4096-10.01472-0.4096-21.0432-2.048-67.21536-9.40032-109.5168-12.05248-182.86592-12.05248s-115.64032 2.65216-182.86592 12.05248c-11.02848 1.6384-20.6336 2.44736-21.0432 2.048-1.6384-1.4336 10.21952-38.41024 17.77664-56.18688 29.62432-68.44416 80.29184-111.75936 145.05984-123.40224 20.84864-3.8912 59.05408-3.8912 80.50688-0.2048z" p-id="6747"></path></svg>