<?xml version="1.0" standalone="no"?><!DOCTYPE svg PUBLIC "-//W3C//DTD SVG 1.1//EN" "http://www.w3.org/Graphics/SVG/1.1/DTD/svg11.dtd"><svg t="1541386451366" class="icon" style="" viewBox="0 0 1024 1024" version="1.1" xmlns="http://www.w3.org/2000/svg" p-id="714" xmlns:xlink="http://www.w3.org/1999/xlink" width="128" height="128"><defs><style type="text/css"></style></defs><path d="M158.339 350.138c0 26.097 8.539 50.198 22.971 69.669a137.053 137.053 0 0 1-3.448-30.626c0-75.468 61.177-136.645 136.641-136.645 10.528 0 20.777 1.193 30.622 3.447-19.47-14.428-43.568-22.966-69.662-22.966-64.687 0.001-117.124 52.438-117.124 117.121z m577.309-211.189c-87.412 0-178.104 54.483-226.151 167.106-49.765-115.9-139.208-170.614-225.201-170.631h-0.037l0.027 39.042c129.976 0.027 225.324 202.461 225.324 202.461s94.885-198.936 226.038-198.936c48.03 0 92.607 19.958 125.53 56.197 38.279 42.127 58.503 103.226 58.503 176.653 0 249.8-332.99 425.296-409.533 462.314C433.377 836.23 99.731 661.349 99.731 412.712c0-74.382 20.358-136.682 58.875-180.146 33.218-37.475 77.843-58.1 125.653-58.1v-39.042c-114.867 0.001-223.576 97.584-223.567 277.288 0 308.379 449.49 503.506 449.49 503.506S958.72 721.091 958.72 410.842c0.01-178.56-108.714-271.893-223.072-271.893z" p-id="715"></path></svg>