<?xml version="1.0" standalone="no"?><!DOCTYPE svg PUBLIC "-//W3C//DTD SVG 1.1//EN" "http://www.w3.org/Graphics/SVG/1.1/DTD/svg11.dtd"><svg t="1538104683488" class="icon" style="" viewBox="0 0 1024 1024" version="1.1" xmlns="http://www.w3.org/2000/svg" p-id="784" xmlns:xlink="http://www.w3.org/1999/xlink" width="128" height="128"><defs><style type="text/css"></style></defs><path d="M811.938614 1020.206738H622.636797V737.879697c0-6.683366-6.863997-12.282942-15.173047-12.282943H421.232669c-8.309049 0-14.992415 5.599577-14.992415 12.282943v282.507673H216.938437c-101.334274 0-183.882872-78.755336-183.882872-175.393191V434.780032c0-21.314518 6.322103-42.087141 18.243782-60.150291l2.709473-3.973893L473.254542 20.41136c8.489681-7.586523 18.966308-12.463574 30.346093-14.631152l2.890104-0.541894h15.895573l2.709472 0.541894c11.379785 1.986947 21.856412 7.044629 30.526724 14.450521L975.048862 370.294585l2.709473 3.973893c12.102311 18.06315 18.424413 39.016405 18.424413 60.330922v410.214147c-0.361263 96.818487-82.909861 175.393191-184.244134 175.393191z m-124.274476-65.027341h124.093844c65.569236 0 118.85553-49.493032 118.85553-110.185218V434.780032c0-7.22526-1.806315-14.269889-5.418945-20.772623l-410.756042-343.199859-411.117304 343.199859c-3.431999 6.502734-5.238314 13.547363-5.238314 20.772623v410.214147c0 60.872817 53.286294 110.185218 118.85553 110.185218h124.274475V737.879697c0-42.629035 35.945669-77.310284 80.019757-77.310284h186.411713c44.254719 0 80.200388 34.681249 80.200388 77.310284v217.2997z" p-id="785"></path></svg>