<?xml version="1.0" standalone="no"?><!DOCTYPE svg PUBLIC "-//W3C//DTD SVG 1.1//EN" "http://www.w3.org/Graphics/SVG/1.1/DTD/svg11.dtd"><svg t="1538104687783" class="icon" style="" viewBox="0 0 1024 1024" version="1.1" xmlns="http://www.w3.org/2000/svg" p-id="915" xmlns:xlink="http://www.w3.org/1999/xlink" width="128" height="128"><defs><style type="text/css"></style></defs><path d="M512.451579 545.507144c-148.479097 0-269.140942-120.842477-269.140942-269.140942S363.972482 7.22526 512.451579 7.22526s269.140942 120.842477 269.140942 269.140942-120.661845 269.140942-269.140942 269.140942z m0-477.589698c-114.881637 0-208.448756 93.567119-208.448757 208.448756s93.567119 208.448756 208.448757 208.448757S720.900335 391.247839 720.900335 276.366202 627.333216 67.917446 512.451579 67.917446zM896.654789 1016.232845H128.248368c-47.506086 0-85.980596-38.655142-85.980596-85.980596v-58.163344l1.806315-5.057683c57.802081-160.220145 250.355265-272.211678 468.377492-272.211677S923.026989 706.811078 980.82907 867.031222l1.806315 5.057683V930.252249c0 47.506086-38.655142 85.980596-85.980596 85.980596zM103.140589 882.926795V930.252249c0 13.908626 11.379785 25.288411 25.288411 25.288411h768.225789c13.908626 0 25.288411-11.379785 25.288411-25.288411v-47.506086C870.463221 748.717587 703.017816 655.692362 512.451579 655.692362S154.439936 748.717587 103.140589 882.926795z" p-id="916"></path></svg>